<svg id="Ebene_1" data-name="Ebene 1" xmlns="http://www.w3.org/2000/svg" xmlns:xlink="http://www.w3.org/1999/xlink" width="464.65" height="104.38" viewBox="0 0 464.65 104.38"><defs><style>.cls-1{fill:#6e8c2c}.cls-2,.cls-8{fill:#315a27}.cls-3{fill:url(#Unbenannter_Verlauf_7)}.cls-4{fill:#5e7f2c}.cls-5{fill:#fff}.cls-6{fill:url(#Unbenannter_Verlauf_11)}.cls-7{fill:#b1826e}.cls-8{opacity:.5}.cls-9{fill:#786635}.cls-10{fill:url(#Unbenannter_Verlauf_13)}</style><linearGradient id="Unbenannter_Verlauf_7" data-name="Unbenannter Verlauf 7" x1="66.91" y1="81.21" x2="110.41" y2=".71" gradientUnits="userSpaceOnUse"><stop offset="0" stop-color="#b3bf88"/><stop offset="1" stop-color="#708e30"/></linearGradient><linearGradient id="Unbenannter_Verlauf_11" data-name="Unbenannter Verlauf 11" x1="14.12" y1="52.31" x2="65.49" y2="52.31" gradientUnits="userSpaceOnUse"><stop offset="0" stop-color="#8f9e6f"/><stop offset="1" stop-color="#7f9252"/></linearGradient><linearGradient id="Unbenannter_Verlauf_13" data-name="Unbenannter Verlauf 13" x1="2.19" y1="85.89" x2="63.13" y2="85.89" gradientUnits="userSpaceOnUse"><stop offset="0" stop-color="#997f67"/><stop offset="1" stop-color="#956d57"/></linearGradient></defs><title>logo</title><g><path class="cls-1" d="M161.34,10.79a14.47,14.47,0,0,1,.77,4.44,15.34,15.34,0,0,1-.77,4.9H140V33.47h17.47a15,15,0,0,1,.77,4.52,14.33,14.33,0,0,1-.77,4.75H140V56.61H162.1a13.73,13.73,0,0,1,.77,4.6A13.44,13.44,0,0,1,162.1,66H127.78V10.79Z" transform="translate(0 0)"/><path class="cls-1" d="M170.45,11.48a23.09,23.09,0,0,1,6.05-.69,24.42,24.42,0,0,1,6.21.69V65.26a24.86,24.86,0,0,1-6.13.69,21.35,21.35,0,0,1-6.13-.69Z" transform="translate(0 0)"/><path class="cls-1" d="M215.2,9.87c9.19,0,14.1,3,14.1,3a10.83,10.83,0,0,1-3.52,8.43,28.89,28.89,0,0,0-9-1.53C209,19.76,204,23.82,204,38.45s5,18.46,12.79,18.46a30.44,30.44,0,0,0,9.65-1.69,11.78,11.78,0,0,1,3.6,8.66s-5.06,3-14.86,3c-15.63,0-24.13-10-24.13-28.5S199.57,9.87,215.2,9.87Z" transform="translate(0 0)"/><path class="cls-1" d="M265.15,11.48a26,26,0,0,1,6.13-.69,30.25,30.25,0,0,1,6.51.69L262.47,36.23l17.7,29A33.51,33.51,0,0,1,273,66a27.38,27.38,0,0,1-6.74-.69L252,41.9h-2.91V65.26a20.09,20.09,0,0,1-6.13.69,22.69,22.69,0,0,1-6.13-.69V11.48a23,23,0,0,1,6.21-.69,21.7,21.7,0,0,1,6.05.69V32.7H252Z" transform="translate(0 0)"/><path class="cls-1" d="M314.57,11.48a27.59,27.59,0,0,1,12.26,0V65.26a23.1,23.1,0,0,1-6.05.69,21.66,21.66,0,0,1-6.21-.69V42.66H297.33v22.6a24.86,24.86,0,0,1-6.13.69,21.35,21.35,0,0,1-6.13-.69V11.48a23.09,23.09,0,0,1,6.05-.69,24.42,24.42,0,0,1,6.21.69V32.7h17.24Z" transform="translate(0 0)"/><path class="cls-1" d="M358.47,9.87c14.1,0,23.14,8.58,23.14,28.5s-8.89,28.5-23.14,28.5-23.21-8.58-23.21-28.5C335.25,18.68,344.29,9.87,358.47,9.87Zm0,9.58c-6.28,0-10.19,3.68-10.19,18.92s3.91,18.85,10.19,18.85,10.19-3.68,10.19-18.85S364.83,19.45,358.47,19.45Z" transform="translate(0 0)"/><path class="cls-1" d="M402.37,65.26a24.42,24.42,0,0,1-6.21.69,23.1,23.1,0,0,1-6.05-.69V10.79H422.9a15.54,15.54,0,0,1,.77,4.6,14.33,14.33,0,0,1-.77,4.75H402.37V34.47H420.6a12.33,12.33,0,0,1,.77,4.52,14.16,14.16,0,0,1-.77,4.83H402.37Z" transform="translate(0 0)"/><path class="cls-1" d="M443.36,65.26a24.42,24.42,0,0,1-6.21.69,23.1,23.1,0,0,1-6.05-.69V10.79h32.79a15.54,15.54,0,0,1,.77,4.6,14.33,14.33,0,0,1-.77,4.75H443.36V34.47h18.23a12.33,12.33,0,0,1,.77,4.52,14.16,14.16,0,0,1-.77,4.83H443.36Z" transform="translate(0 0)"/></g><g><path class="cls-2" d="M135.25,79.19A11.66,11.66,0,0,1,140,80a2.07,2.07,0,0,1-.58,1.4,13.2,13.2,0,0,0-3.9-.61c-3.26,0-5.71,1.73-5.71,7.82s2.45,7.74,5.71,7.74a13.6,13.6,0,0,0,3-.33v-6.6h-4.18a1.9,1.9,0,0,1-.15-.79,1.64,1.64,0,0,1,.15-.79h6V97.2a13.29,13.29,0,0,1-5,.84c-4.79,0-7.46-3.13-7.46-9.42S130.43,79.19,135.25,79.19Z" transform="translate(0 0)"/><path class="cls-2" d="M150.29,79.45a3.08,3.08,0,0,1,1,.15l6.75,18a2.71,2.71,0,0,1-1,.15,2.21,2.21,0,0,1-.92-.15l-1.83-4.86h-8.12l-1.86,4.86a2.21,2.21,0,0,1-.92.15,2,2,0,0,1-.89-.15l6.75-18A3.25,3.25,0,0,1,150.29,79.45Zm-.1,2.19a13.66,13.66,0,0,1-.51,1.76l-3,7.79h7l-3-7.79a15.39,15.39,0,0,1-.51-1.76Zm-2-5.14a3.52,3.52,0,0,1,.94.1v1.68a3.52,3.52,0,0,1-.94.1,3.29,3.29,0,0,1-.94-.1V76.6A3.29,3.29,0,0,1,148.23,76.49Zm4,0a3.52,3.52,0,0,1,.94.1v1.68a3.52,3.52,0,0,1-.94.1,3.29,3.29,0,0,1-.94-.1V76.6A3.29,3.29,0,0,1,152.25,76.49Z" transform="translate(0 0)"/><path class="cls-2" d="M167.3,79.45a4.91,4.91,0,0,1,5.27,5.22,4.78,4.78,0,0,1-3.67,5l4.41,7.95a4,4,0,0,1-2.19,0l-4.28-7.74h-4v7.74a3,3,0,0,1-1.88,0V79.45Zm-4.43,8.84h4.25c2.17,0,3.46-1.32,3.46-3.62s-1.3-3.62-3.46-3.62h-4.25Z" transform="translate(0 0)"/><path class="cls-2" d="M186.7,79.45a2,2,0,0,1,.15.81,2.34,2.34,0,0,1-.15.84h-5V97.63a2.43,2.43,0,0,1-.94.15,2.14,2.14,0,0,1-.94-.15V81.1h-5.09a2.17,2.17,0,0,1-.15-.84,2.11,2.11,0,0,1,.15-.81Z" transform="translate(0 0)"/><path class="cls-2" d="M200.15,79.45a1.78,1.78,0,0,1,.15.76,2,2,0,0,1-.15.81h-8.23v6.7h7a1.83,1.83,0,0,1,.15.74,2.12,2.12,0,0,1-.15.81h-7v6.93h8.48a1.85,1.85,0,0,1,.15.76,2.19,2.19,0,0,1-.15.82H190V79.45Z" transform="translate(0 0)"/><path class="cls-2" d="M207.25,84.67a17.76,17.76,0,0,1-1.37-2.8h-.08s.13,1.38.13,3.87V97.63a2,2,0,0,1-.89.15,1.94,1.94,0,0,1-.87-.15v-18a3.49,3.49,0,0,1,1.12-.15,3.13,3.13,0,0,1,1.12.15l7.46,12.81a24.39,24.39,0,0,1,1.45,3h.08s-.15-1.63-.15-3.79v-12a2.08,2.08,0,0,1,.92-.15,1.65,1.65,0,0,1,.84.15v18a2.79,2.79,0,0,1-1.07.15,3.37,3.37,0,0,1-1.15-.15Z" transform="translate(0 0)"/><path class="cls-2" d="M243.12,79.45a4.56,4.56,0,0,1,1.25.15v18a3,3,0,0,1-1.88,0V86.83c0-2.19,0-4.2.13-5.09h-.08a30.11,30.11,0,0,1-1.73,3.74L236.55,93a1.88,1.88,0,0,1-.64.1,1.57,1.57,0,0,1-.59-.1c-1.35-2.5-2.72-5-4.07-7.49a25.12,25.12,0,0,1-1.76-3.79h-.08a36.41,36.41,0,0,1,.2,5V97.63a2,2,0,0,1-.87.15,2.08,2.08,0,0,1-.87-.15v-18a3.78,3.78,0,0,1,1.15-.15,4.69,4.69,0,0,1,1.15.15l4.43,8.1a23,23,0,0,1,1.32,2.88h.1a9.76,9.76,0,0,1,.87-1.88c1.68-3,3.34-6.06,5-9.09A4.81,4.81,0,0,1,243.12,79.45Z" transform="translate(0 0)"/><path class="cls-2" d="M249.23,79.6a3,3,0,0,1,1.88,0v18a2.43,2.43,0,0,1-.94.15,2.14,2.14,0,0,1-.94-.15Z" transform="translate(0 0)"/><path class="cls-2" d="M266.39,79.45a2,2,0,0,1,.15.81,2.34,2.34,0,0,1-.15.84h-5V97.63a2.43,2.43,0,0,1-.94.15,2.14,2.14,0,0,1-.94-.15V81.1h-5.09a2.17,2.17,0,0,1-.15-.84,2.11,2.11,0,0,1,.15-.81Z" transform="translate(0 0)"/><path class="cls-2" d="M280.24,79.19a15.34,15.34,0,0,1,4.81.69,2.31,2.31,0,0,1-.51,1.48,16.12,16.12,0,0,0-4-.53c-3,0-4.41,1.25-4.41,3.34,0,2.32,2.17,2.83,4.69,3.57s5,1.73,5,5.17c0,3.26-2.22,5.14-6.21,5.14a13.15,13.15,0,0,1-5.32-1,2.64,2.64,0,0,1,.48-1.5,16.69,16.69,0,0,0,4.71.79c2.88,0,4.41-1.17,4.41-3.39S282,90,280,89.46c-2.7-.84-5.83-1.5-5.83-5.2C274.2,81.21,276.27,79.19,280.24,79.19Z" transform="translate(0 0)"/><path class="cls-2" d="M299.87,79.45a2,2,0,0,1,.15.81,2.34,2.34,0,0,1-.15.84h-5V97.63a2.43,2.43,0,0,1-.94.15,2.14,2.14,0,0,1-.94-.15V81.1h-5.09a2.17,2.17,0,0,1-.15-.84,2.11,2.11,0,0,1,.15-.81Z" transform="translate(0 0)"/><path class="cls-2" d="M303.2,79.6a3,3,0,0,1,1.88,0v18a2.43,2.43,0,0,1-.94.15,2.14,2.14,0,0,1-.94-.15Z" transform="translate(0 0)"/><path class="cls-2" d="M310,79.6a2.44,2.44,0,0,1,.94-.15,2.29,2.29,0,0,1,.94.15V96.13h8a3,3,0,0,1,.13.81,3.26,3.26,0,0,1-.13.84H310Z" transform="translate(0 0)"/></g><g><path class="cls-1" d="M41.92.08A150.82,150.82,0,0,1,54.86,21.7,185.8,185.8,0,0,1,91.46,1.57C80.19.28,60-.21,41.92.08Z" transform="translate(0 0)"/><path class="cls-3" d="M65.39,67.89a79.45,79.45,0,0,1-2.26,15,153.86,153.86,0,0,1,25.73,20.16c7-.66,11.51-1.56,11.51-2.71,5.35,0,5.35-96.35,0-96.35,0-1-3.39-1.82-8.9-2.45A185.8,185.8,0,0,0,54.86,21.7C61.46,35.3,66.25,51.18,65.39,67.89Z" transform="translate(0 0)"/><path class="cls-1" d="M14.12,67.41A133.3,133.3,0,0,1,27.18,47.66a139,139,0,0,1,27.68-26A150.82,150.82,0,0,0,41.92.08C21.71.41,4,1.72,4,4,.74,4-.53,40,.2,68A99.49,99.49,0,0,1,14.12,67.41Z" transform="translate(0 0)"/><path class="cls-4" d="M14.12,67.41A133.3,133.3,0,0,1,27.18,47.66a139,139,0,0,1,27.68-26A150.82,150.82,0,0,0,41.92.08C21.71.41,4,1.72,4,4,.74,4-.53,40,.2,68A99.49,99.49,0,0,1,14.12,67.41Z" transform="translate(0 0)"/><path class="cls-5" d="M27.18,47.66A133.3,133.3,0,0,0,14.12,67.41a89.46,89.46,0,0,1,10.94,1c14,2.13,26.78,7.59,38.07,14.54a79.45,79.45,0,0,0,2.26-15c.86-16.71-3.93-32.59-10.53-46.19A139,139,0,0,0,27.18,47.66Z" transform="translate(0 0)"/><path class="cls-6" d="M27.18,47.66A133.3,133.3,0,0,0,14.12,67.41a89.46,89.46,0,0,1,10.94,1c14,2.13,26.78,7.59,38.07,14.54a79.45,79.45,0,0,0,2.26-15c.86-16.71-3.93-32.59-10.53-46.19A139,139,0,0,0,27.18,47.66Z" transform="translate(0 0)"/><path class="cls-5" d="M54.92,104.37c12.77-.05,25.28-.48,33.94-1.29A153.86,153.86,0,0,0,63.13,82.91,98.8,98.8,0,0,1,54.92,104.37Z" transform="translate(0 0)"/><path class="cls-7" d="M54.92,104.37c12.77-.05,25.28-.48,33.94-1.29A153.86,153.86,0,0,0,63.13,82.91,98.8,98.8,0,0,1,54.92,104.37Z" transform="translate(0 0)"/><path class="cls-1" d="M.2,68c.31,11.8,1,22.17,2,27.82A159.36,159.36,0,0,1,14.12,67.41,99.49,99.49,0,0,0,.2,68Z" transform="translate(0 0)"/><path class="cls-8" d="M.2,68c.31,11.8,1,22.17,2,27.82A159.36,159.36,0,0,1,14.12,67.41,99.49,99.49,0,0,0,.2,68Z" transform="translate(0 0)"/><path class="cls-9" d="M.2,68c.31,11.8,1,22.17,2,27.82A159.36,159.36,0,0,1,14.12,67.41,99.49,99.49,0,0,0,.2,68Z" transform="translate(0 0)"/><path class="cls-5" d="M25.06,68.38a89.46,89.46,0,0,0-10.94-1A159.36,159.36,0,0,0,2.19,95.83c.52,2.87,1.13,4.53,1.83,4.53,0,2.78,25.94,4.11,50.9,4a98.8,98.8,0,0,0,8.21-21.46C51.84,76,39.05,70.51,25.06,68.38Z" transform="translate(0 0)"/><path class="cls-8" d="M25.06,68.38a89.46,89.46,0,0,0-10.94-1A159.36,159.36,0,0,0,2.19,95.83c.52,2.87,1.13,4.53,1.83,4.53,0,2.78,25.94,4.11,50.9,4a98.8,98.8,0,0,0,8.21-21.46C51.84,76,39.05,70.51,25.06,68.38Z" transform="translate(0 0)"/><path class="cls-10" d="M25.06,68.38a89.46,89.46,0,0,0-10.94-1A159.36,159.36,0,0,0,2.19,95.83c.52,2.87,1.13,4.53,1.83,4.53,0,2.78,25.94,4.11,50.9,4a98.8,98.8,0,0,0,8.21-21.46C51.84,76,39.05,70.51,25.06,68.38Z" transform="translate(0 0)"/></g></svg>